Coordinates
version=1
nRows=16
nColumns=42
inDegrees=yes

Units are S.I. units (second, meters, Newtons, ...)
If the header above contains a line with 'inDegrees', this indicates whether rotational values are in degrees (yes) or radians (no).

endheader
time	pelvis_tilt	pelvis_list	pelvis_rotation	pelvis_tx	pelvis_ty	pelvis_tz	hip_flexion_r	hip_adduction_r	hip_rotation_r	knee_angle_r	knee_adduction_r	knee_angle_r_beta	ankle_angle_r	subtalar_angle_r	mtp_angle_r	hip_flexion_l	hip_adduction_l	hip_rotation_l	knee_angle_l	knee_adduction_l	knee_angle_l_beta	ankle_angle_l	subtalar_angle_l	mtp_angle_l	lumbar_extension	lumbar_bending	lumbar_rotation	arm_flex_r	arm_add_r	arm_rot_r	elbow_flex_r	pro_sup_r	wrist_flex_r	wrist_dev_r	arm_flex_l	arm_add_l	arm_rot_l	elbow_flex_l	pro_sup_l	wrist_flex_l	wrist_dev_l
      1.30000000	     10.26689064	      6.76542696	     18.81864935	      0.15770373	      0.90402613	      0.48017730	     -7.48173596	     -0.92225827	    -26.23006270	     22.14385463	     -0.14572339	      0.38648317	     23.52812566	      6.41696507	     -8.01722017	     26.63577441	     -8.89494167	      3.57743806	     27.88785102	      7.50597444	      0.48673482	      6.36748025	      5.80604451	     -8.01722017	    -27.25695614	     -5.03639426	     -1.45635892	     -9.23095132	    -24.34002491	    -27.34411724	     66.50363311	     90.00000001	      0.00000000	      0.00000000	      0.12232516	    -20.32805446	     12.56444948	     87.83339529	     90.00000001	      0.00000000	      0.00000000
      1.31000000	     10.45868464	      6.73376305	     18.63016874	      0.15997473	      0.90345519	      0.47996063	     -7.71533606	     -0.84433075	    -26.02757685	     22.38003960	     -0.17643557	      0.39060538	     23.41501824	      6.44522307	     -8.01341933	     27.13729687	     -8.66274779	      3.49357257	     27.89657182	      7.60016385	      0.48688703	      6.34108197	      5.84883808	     -8.01341933	    -27.24121856	     -5.00738596	     -1.17565646	     -9.10085432	    -24.32000613	    -27.25382406	     66.57451301	     90.00000001	      0.00000000	      0.00000000	      0.03652769	    -20.37676232	     12.51119736	     87.77495169	     90.00000001	      0.00000000	      0.00000000
      1.32000000	     11.02383835	      6.67396137	     18.21537077	      0.16263716	      0.90325543	      0.47984416	     -8.47778343	     -0.60465398	    -25.61704889	     22.32817635	     -0.07376134	      0.38970019	     24.00116374	      6.05465706	     -7.99798643	     27.40606656	     -8.64563723	      2.69188517	     28.58468015	      7.41991421	      0.49889678	      6.28998330	      6.16969084	     -7.99798643	    -27.59213488	     -4.81719727	     -0.86496125	     -9.22832520	    -24.55818348	    -26.46617357	     67.86537280	     90.00000001	      0.00000000	      0.00000000	     -0.44584999	    -20.36473768	     11.83949177	     87.92506201	     90.00000001	      0.00000000	      0.00000000
      1.33000000	     11.17433500	      6.61560285	     18.02309015	      0.16503035	      0.90268329	      0.47954852	     -8.68368146	     -0.52517872	    -25.42983600	     22.55692611	     -0.09472194	      0.39369263	     23.88704810	      6.08578084	     -7.99432413	     27.82688538	     -8.39993020	      2.61968421	     28.61139964	      7.52554522	      0.49936313	      6.26165627	      6.21410919	     -7.99432413	    -27.53400979	     -4.76652203	     -0.57478698	     -9.08322789	    -24.50911622	    -26.36327925	     67.94225615	     90.00000001	      0.00000000	      0.00000000	     -0.54903961	    -20.40315794	     11.79737982	     87.85974377	     90.00000001	      0.00000000	      0.00000000
      1.34000000	     11.69345951	      6.62325054	     17.68986212	      0.16788356	      0.90262094	      0.47923335	     -9.50904170	     -0.41104053	    -25.27032623	     22.42638353	      0.01400973	      0.39141423	     24.41602530	      5.90388698	     -7.98525660	     27.85084550	     -8.24366958	      2.23086759	     29.00332689	      7.48673731	      0.50620355	      6.18759479	      6.43768880	     -7.98525660	    -27.84075420	     -4.64230331	     -0.43299116	     -9.05224532	    -24.55878895	    -25.66992840	     69.03444076	     90.00000001	      0.00000000	      0.00000000	     -1.05500465	    -20.38452347	     11.32121811	     87.87274407	     90.00000001	      0.00000000	      0.00000000
      1.35000000	     11.85624638	      6.53844006	     17.36653155	      0.17056897	      0.90215275	      0.47898544	     -9.76636963	     -0.34690328	    -25.15140031	     22.56892793	      0.00939070	      0.39390210	     24.37413943	      5.91938510	     -7.98231344	     28.09431904	     -8.01244839	      2.25438574	     29.06918615	      7.53486485	      0.50735301	      6.14392547	      6.50046723	     -7.98231344	    -27.76140515	     -4.59789649	     -0.11284066	     -8.86472698	    -24.45339290	    -25.50536848	     69.23247992	     90.00000001	      0.00000000	      0.00000000	     -1.33837675	    -20.41613387	     11.29377152	     87.76173054	     90.00000001	      0.00000000	      0.00000000
      1.36000000	     12.29562223	      6.58681678	     17.09442149	      0.17333742	      0.90216333	      0.47847406	    -10.58598220	     -0.30742026	    -24.91591330	     22.32697495	      0.17362724	      0.38967922	     24.78915051	      5.95515268	     -7.97520663	     27.92211245	     -7.69013068	      2.11328194	     29.13122337	      7.50056991	      0.50843576	      6.00836006	      6.67856517	     -7.97520663	    -28.05390343	     -4.51344787	     -0.05231801	     -8.89735049	    -24.53869807	    -24.74800847	     70.33916240	     90.00000001	      0.00000000	      0.00000000	     -1.80480827	    -20.35058494	     10.79220392	     87.83491621	     90.00000001	      0.00000000	      0.00000000
      1.37000000	     12.42188943	      6.47741465	     16.74802474	      0.17615390	      0.90167049	      0.47815632	    -10.82264874	     -0.24955726	    -24.80694241	     22.44668249	      0.16904740	      0.39176852	     24.74873042	      5.98170796	     -7.97233970	     28.06071331	     -7.45889042	      2.18112378	     29.17256593	      7.52142054	      0.50915733	      5.95589593	      6.73671829	     -7.97233970	    -27.92934920	     -4.45949168	      0.26301774	     -8.71517018	    -24.38903072	    -24.55357134	     70.54341923	     90.00000001	      0.00000000	      0.00000000	     -2.13528908	    -20.32317717	     10.79449433	     87.72575860	     90.00000001	      0.00000000	      0.00000000
      1.38000000	     12.84529678	      6.57191614	     16.45200553	      0.17905726	      0.90184060	      0.47762937	    -11.68063680	     -0.26414667	    -24.59999229	     22.12536178	      0.31156764	      0.38616041	     25.10991134	      6.14544065	     -7.96611618	     27.57078706	     -7.03993923	      2.29339541	     28.87814186	      7.51073049	      0.50401866	      5.76853261	      6.82620739	     -7.96611618	    -28.22340260	     -4.44843322	      0.29261351	     -8.71750792	    -24.45251828	    -23.74334440	     71.58771987	     90.00000001	      0.00000000	      0.00000000	     -2.61957015	    -20.23081068	     10.33726838	     87.78469047	     90.00000001	      0.00000000	      0.00000000
      1.39000000	     13.05898686	      6.54734820	     16.08897588	      0.18205594	      0.90163326	      0.47724481	    -12.15064940	     -0.25904484	    -24.43370345	     22.05291349	      0.35512212	      0.38489595	     25.18203205	      6.28838345	     -7.96026980	     27.31285103	     -6.72441398	      2.40871156	     28.66286331	      7.50234707	      0.50026134	      5.63986530	      6.83284378	     -7.96026980	    -28.23048770	     -4.44604942	      0.46877074	     -8.56038570	    -24.37086362	    -23.24908312	     72.10655546	     90.00000001	      0.00000000	      0.00000000	     -3.06568207	    -20.16519175	     10.18031776	     87.71928963	     90.00000001	      0.00000000	      0.00000000
      1.40000000	     13.12518411	      6.38972952	     15.75525027	      0.18515078	      0.90108366	      0.47683615	    -12.34978972	     -0.18045609	    -24.38381027	     22.13369960	      0.34958104	      0.38630593	     25.18171895	      6.30851492	     -7.95870631	     27.29288925	     -6.51203589	      2.52573213	     28.65619305	      7.48648947	      0.50014492	      5.58692696	      6.86101780	     -7.95870631	    -28.02264058	     -4.36502092	      0.75766410	     -8.41218190	    -24.15999891	    -23.06811577	     72.29740383	     90.00000001	      0.00000000	      0.00000000	     -3.42908629	    -20.06996693	     10.24030876	     87.62494405	     90.00000001	      0.00000000	      0.00000000
      1.41000000	     13.27175123	      6.31194600	     15.40996819	      0.18818047	      0.90076942	      0.47643498	    -12.71137509	     -0.06921808	    -24.14803079	     22.03610882	      0.25125047	      0.38460265	     25.43259222	      6.43288799	     -7.95565885	     26.89359279	     -6.20406381	      2.74169676	     28.19857278	      7.42671002	      0.49215794	      5.45611730	      6.87597433	     -7.95565885	    -27.97557092	     -4.28778042	      0.79593314	     -8.21311599	    -24.04171624	    -22.54528616	     73.18771339	     90.00000001	      0.00000000	      0.00000000	     -3.96946975	    -20.04954755	     10.09281283	     87.47170363	     90.00000001	      0.00000000	      0.00000000
      1.42000000	     13.54904745	      6.35356221	     15.03236014	      0.19139920	      0.90076468	      0.47595801	    -13.34081181	     -0.11292726	    -23.92439781	     21.83084646	      0.32658511	      0.38102015	     25.72758190	      6.67619171	     -7.95062159	     26.11341765	     -5.82492602	      3.08969180	     27.50541993	      7.45734771	      0.48006014	      5.23891750	      6.77548300	     -7.95062159	    -28.08916461	     -4.32749148	      0.94945880	     -8.29918559	    -24.07377210	    -21.73703592	     74.07371073	     90.00000001	      0.00000000	      0.00000000	     -4.41878810	    -19.83477570	      9.78016725	     87.51636338	     90.00000001	      0.00000000	      0.00000000
      1.43000000	     13.55650662	      6.16600101	     14.72475960	      0.19468134	      0.90009245	      0.47543284	    -13.49386949	     -0.03831568	    -23.89218503	     21.89322328	      0.34141142	      0.38210883	     25.72921591	      6.70625192	     -7.94925789	     25.95940308	     -5.63484048	      3.19781719	     27.45381182	      7.41054450	      0.47915941	      5.18913525	      6.77259950	     -7.94925789	    -27.83846273	     -4.21685216	      1.18328360	     -8.16438637	    -23.85204959	    -21.54777978	     74.25894640	     90.00000001	      0.00000000	      0.00000000	     -4.83587614	    -19.69364367	      9.88669948	     87.41796310	     90.00000001	      0.00000000	      0.00000000
      1.44000000	     13.83268003	      6.25158304	     14.31869293	      0.19807590	      0.90013235	      0.47498199	    -14.13519570	     -0.12385790	    -23.58838206	     21.70860939	      0.38223964	      0.37888671	     26.06451562	      7.06995031	     -7.94153107	     24.85956068	     -5.23727269	      3.58815876	     26.37570459	      7.43394809	      0.46034289	      4.93514057	      6.48483610	     -7.94153107	    -27.96606777	     -4.31601501	      1.20885900	     -8.16184706	    -23.88929952	    -20.55148899	     75.27917659	     90.00000001	      0.00000000	      0.00000000	     -5.33908470	    -19.47062483	      9.61456524	     87.41145917	     90.00000001	      0.00000000	      0.00000000
      1.45000000	     13.86126935	      6.14244790	     13.97814286	      0.20149528	      0.89952841	      0.47443114	    -14.36354432	     -0.09578601	    -23.46268071	     21.70795093	      0.34022106	      0.37887522	     26.21843295	      7.26817663	     -7.93444695	     24.30190242	     -4.94226206	      3.83620157	     25.83040021	      7.31920939	      0.45082553	      4.78001634	      6.25338455	     -7.93444695	    -27.76967420	     -4.26183372	      1.29750483	     -7.99924734	    -23.78994595	    -20.12073512	     75.81909319	     90.00000001	      0.00000000	      0.00000000	     -5.83729356	    -19.36461570	      9.61974911	     87.31444857	     90.00000001	      0.00000000	      0.00000000
